<?xml version="1.0" encoding="UTF-8" ?>
<!DOCTYPE svg PUBLIC "-//W3C//DTD SVG 1.1//EN" "http://www.w3.org/Graphics/SVG/1.1/DTD/svg11.dtd">
<svg width="96pt" height="96pt" viewBox="0 0 96 96" version="1.1" xmlns="http://www.w3.org/2000/svg">
<g id="#ffffffff">
</g>
<g id="#000000ff">
<path fill="#000000" opacity="1.00" d=" M 34.16 12.22 C 40.76 11.70 47.40 12.15 54.02 11.99 C 58.18 12.07 63.13 11.23 66.30 14.64 C 68.55 16.56 68.40 20.31 71.00 21.81 C 74.69 22.32 78.46 21.66 82.15 22.26 C 87.13 23.12 91.03 27.88 90.96 32.94 C 91.03 46.31 91.03 59.69 90.96 73.06 C 91.08 78.89 85.88 84.10 80.04 83.96 C 58.66 84.03 37.29 84.03 15.92 83.96 C 10.09 84.07 4.89 78.85 5.04 73.02 C 4.97 59.67 4.97 46.32 5.04 32.97 C 4.85 26.72 10.77 21.45 16.93 22.00 C 19.93 21.59 23.57 22.95 26.12 21.02 C 27.83 17.38 29.61 12.88 34.16 12.22 M 13.44 28.70 C 11.60 29.72 10.85 31.90 11.00 33.91 C 11.03 46.98 10.93 60.05 11.05 73.12 C 10.94 76.21 14.07 78.41 16.99 78.00 C 37.67 78.00 58.36 78.00 79.04 78.00 C 81.94 78.41 85.03 76.21 84.94 73.14 C 85.04 59.71 85.04 46.28 84.95 32.85 C 85.02 29.80 81.96 27.60 79.07 28.00 C 58.71 27.98 38.34 28.03 17.98 27.98 C 16.46 28.06 14.79 27.86 13.44 28.70 Z" />
<path fill="#000000" opacity="1.00" d=" M 45.22 32.18 C 56.96 30.27 68.74 40.12 68.96 52.00 C 69.44 60.01 64.82 68.02 57.65 71.62 C 50.24 75.60 40.47 74.44 34.20 68.81 C 28.59 64.02 25.92 56.14 27.40 48.91 C 28.99 40.29 36.52 33.23 45.22 32.18 Z" />
</g>
</svg>
