<svg xmlns="http://www.w3.org/2000/svg" xmlns:xlink="http://www.w3.org/1999/xlink" viewBox="0,0,256,256" width="48px" height="48px" fill-rule="nonzero"><g fill="#003ebc" fill-rule="nonzero" stroke="none" stroke-width="1" stroke-linecap="butt" stroke-linejoin="miter" stroke-miterlimit="10" stroke-dasharray="" stroke-dashoffset="0" font-family="none" font-weight="none" font-size="none" text-anchor="none" style="mix-blend-mode: normal"><g transform="scale(10.66667,10.66667)"><path d="M18,21h-12c-1.105,0 -2,-0.895 -2,-2v-7c0,-1.105 0.895,-2 2,-2h12c1.105,0 2,0.895 2,2v7c0,1.105 -0.895,2 -2,2z" opacity="0.35"></path><path d="M18,10h-12c-0.552,0 -1,-0.448 -1,-1v-4c0,-1.105 0.895,-2 2,-2h10c1.105,0 2,0.895 2,2v4c0,0.552 -0.448,1 -1,1z" opacity="0.35"></path><path d="M20.53,8.857l-3.061,-0.857l-0.589,-1.548c-0.392,-1.033 -1.547,-1.552 -2.58,-1.159l-11.217,4.262c-1.033,0.392 -1.552,1.547 -1.159,2.58l2.076,5.466v-5.601c0,-1.105 0.895,-2 2,-2h12c1.105,0 2,0.895 2,2v6.172l1.917,-6.849c0.297,-1.064 -0.324,-2.168 -1.387,-2.466z"></path><path d="M9.5,18.75c-1.792,0 -3.25,-1.458 -3.25,-3.25c0,-1.792 1.458,-3.25 3.25,-3.25c0.621,0 1.225,0.176 1.746,0.509c0.35,0.223 0.452,0.687 0.229,1.036c-0.222,0.348 -0.685,0.451 -1.035,0.229c-0.28,-0.179 -0.605,-0.273 -0.939,-0.273c-0.965,0 -1.75,0.785 -1.75,1.75c0,0.965 0.785,1.75 1.75,1.75c0.696,0 1.3,-0.409 1.581,-1h-0.95c-0.414,0 -0.75,-0.336 -0.75,-0.75c0,-0.414 0.336,-0.75 0.75,-0.75h1.868c0.414,0 0.75,0.336 0.75,0.75c0,1.791 -1.458,3.249 -3.25,3.249z"></path><path d="M17,15h-2c-0.553,0 -1,-0.448 -1,-1c0,-0.552 0.447,-1 1,-1h2c0.553,0 1,0.448 1,1c0,0.552 -0.447,1 -1,1z"></path><path d="M17,18h-2c-0.553,0 -1,-0.448 -1,-1c0,-0.552 0.447,-1 1,-1h2c0.553,0 1,0.448 1,1c0,0.552 -0.447,1 -1,1z"></path></g></g></svg>